<mxfile host="app.diagrams.net" modified="2024-03-23T08:55:05.188Z" agent="Mozilla/5.0 (Macintosh; Intel Mac OS X 10_15_7) AppleWebKit/537.36 (KHTML, like Gecko) Chrome/123.0.0.0 Safari/537.36" etag="4ipMP4HE-TP_3l0vmkPH" version="24.0.3" type="device">
  <diagram name="Trang-1" id="XAlrAXkY7nWxciisoCUU">
    <mxGraphModel dx="1060" dy="591" grid="1" gridSize="10" guides="1" tooltips="1" connect="1" arrows="1" fold="1" page="1" pageScale="1" pageWidth="827" pageHeight="1169" math="0" shadow="0">
      <root>
        <mxCell id="0" />
        <mxCell id="1" parent="0" />
        <mxCell id="ojFUXAwLOPV4ucomHzMM-1" value="mstate" style="rounded=1;whiteSpace=wrap;html=1;" vertex="1" parent="1">
          <mxGeometry x="356.5" y="40" width="110" height="30" as="geometry" />
        </mxCell>
        <mxCell id="ojFUXAwLOPV4ucomHzMM-2" value="i = mstate[i]" style="rounded=0;whiteSpace=wrap;html=1;" vertex="1" parent="1">
          <mxGeometry x="359" y="100" width="105" height="30" as="geometry" />
        </mxCell>
        <mxCell id="ojFUXAwLOPV4ucomHzMM-3" value="mstates[nstate] = ntstates[c-NTBASE]" style="rounded=0;whiteSpace=wrap;html=1;" vertex="1" parent="1">
          <mxGeometry x="150" y="155" width="220" height="35" as="geometry" />
        </mxCell>
        <mxCell id="ojFUXAwLOPV4ucomHzMM-5" value="mstates[nstate]=tstates[c]" style="rounded=0;whiteSpace=wrap;html=1;" vertex="1" parent="1">
          <mxGeometry x="444" y="155" width="160" height="35" as="geometry" />
        </mxCell>
        <mxCell id="ojFUXAwLOPV4ucomHzMM-6" value="i = nstates[c-NTBASE]" style="rounded=0;whiteSpace=wrap;html=1;" vertex="1" parent="1">
          <mxGeometry x="170" y="310" width="160" height="30" as="geometry" />
        </mxCell>
        <mxCell id="ojFUXAwLOPV4ucomHzMM-7" value="ntstates[c-NTBASE] = nstate" style="rounded=0;whiteSpace=wrap;html=1;" vertex="1" parent="1">
          <mxGeometry x="170" y="230" width="170" height="30" as="geometry" />
        </mxCell>
        <mxCell id="ojFUXAwLOPV4ucomHzMM-8" value="i = tstates[c]" style="rounded=0;whiteSpace=wrap;html=1;" vertex="1" parent="1">
          <mxGeometry x="464" y="310" width="120" height="35" as="geometry" />
        </mxCell>
        <mxCell id="ojFUXAwLOPV4ucomHzMM-9" value="tstates[c] = nstate" style="rounded=0;whiteSpace=wrap;html=1;" vertex="1" parent="1">
          <mxGeometry x="464" y="230" width="120" height="30" as="geometry" />
        </mxCell>
        <mxCell id="ojFUXAwLOPV4ucomHzMM-15" style="edgeStyle=orthogonalEdgeStyle;rounded=0;orthogonalLoop=1;jettySize=auto;html=1;entryX=0;entryY=0.5;entryDx=0;entryDy=0;" edge="1" parent="1" source="ojFUXAwLOPV4ucomHzMM-11" target="ojFUXAwLOPV4ucomHzMM-13">
          <mxGeometry relative="1" as="geometry" />
        </mxCell>
        <mxCell id="ojFUXAwLOPV4ucomHzMM-11" value="nstate" style="rounded=1;whiteSpace=wrap;html=1;" vertex="1" parent="1">
          <mxGeometry x="190" y="470" width="80" height="40" as="geometry" />
        </mxCell>
        <mxCell id="ojFUXAwLOPV4ucomHzMM-12" value="nstate++" style="rounded=1;whiteSpace=wrap;html=1;" vertex="1" parent="1">
          <mxGeometry x="350" y="585" width="80" height="40" as="geometry" />
        </mxCell>
        <mxCell id="ojFUXAwLOPV4ucomHzMM-19" style="edgeStyle=orthogonalEdgeStyle;rounded=0;orthogonalLoop=1;jettySize=auto;html=1;" edge="1" parent="1" source="ojFUXAwLOPV4ucomHzMM-13" target="ojFUXAwLOPV4ucomHzMM-14">
          <mxGeometry relative="1" as="geometry" />
        </mxCell>
        <mxCell id="ojFUXAwLOPV4ucomHzMM-13" value="mstates[nstate] = ntstates[c-NTBASE]" style="rounded=0;whiteSpace=wrap;html=1;" vertex="1" parent="1">
          <mxGeometry x="310" y="430" width="160" height="40" as="geometry" />
        </mxCell>
        <mxCell id="ojFUXAwLOPV4ucomHzMM-18" style="edgeStyle=orthogonalEdgeStyle;rounded=0;orthogonalLoop=1;jettySize=auto;html=1;entryX=0.5;entryY=0;entryDx=0;entryDy=0;" edge="1" parent="1" source="ojFUXAwLOPV4ucomHzMM-14" target="ojFUXAwLOPV4ucomHzMM-12">
          <mxGeometry relative="1" as="geometry" />
        </mxCell>
        <mxCell id="ojFUXAwLOPV4ucomHzMM-14" value="ntstates[c-NTBASE] = nstate" style="rounded=0;whiteSpace=wrap;html=1;" vertex="1" parent="1">
          <mxGeometry x="306.5" y="510" width="160" height="40" as="geometry" />
        </mxCell>
        <mxCell id="ojFUXAwLOPV4ucomHzMM-20" value="save previous state number of the symbol" style="rounded=1;whiteSpace=wrap;html=1;fillColor=#d80073;fontColor=#ffffff;strokeColor=#A50040;" vertex="1" parent="1">
          <mxGeometry x="520" y="427.5" width="170" height="45" as="geometry" />
        </mxCell>
        <mxCell id="ojFUXAwLOPV4ucomHzMM-21" value="save current state number of the symbol" style="rounded=1;whiteSpace=wrap;html=1;fillColor=#d80073;fontColor=#ffffff;strokeColor=#A50040;" vertex="1" parent="1">
          <mxGeometry x="525" y="510" width="160" height="40" as="geometry" />
        </mxCell>
        <mxCell id="ojFUXAwLOPV4ucomHzMM-35" style="edgeStyle=orthogonalEdgeStyle;rounded=0;orthogonalLoop=1;jettySize=auto;html=1;entryX=0.5;entryY=1;entryDx=0;entryDy=0;" edge="1" parent="1" source="ojFUXAwLOPV4ucomHzMM-22" target="ojFUXAwLOPV4ucomHzMM-23">
          <mxGeometry relative="1" as="geometry" />
        </mxCell>
        <mxCell id="ojFUXAwLOPV4ucomHzMM-22" value="ntstates[a] = 1" style="rounded=1;whiteSpace=wrap;html=1;" vertex="1" parent="1">
          <mxGeometry x="170" y="730" width="100" height="35" as="geometry" />
        </mxCell>
        <mxCell id="ojFUXAwLOPV4ucomHzMM-23" value="mstates[1] = 0" style="rounded=1;whiteSpace=wrap;html=1;" vertex="1" parent="1">
          <mxGeometry x="170" y="675" width="100" height="30" as="geometry" />
        </mxCell>
        <mxCell id="ojFUXAwLOPV4ucomHzMM-33" style="edgeStyle=orthogonalEdgeStyle;rounded=0;orthogonalLoop=1;jettySize=auto;html=1;entryX=0.5;entryY=1;entryDx=0;entryDy=0;" edge="1" parent="1" source="ojFUXAwLOPV4ucomHzMM-25" target="ojFUXAwLOPV4ucomHzMM-26">
          <mxGeometry relative="1" as="geometry" />
        </mxCell>
        <mxCell id="ojFUXAwLOPV4ucomHzMM-25" value="ntstates[a] = 2" style="rounded=1;whiteSpace=wrap;html=1;" vertex="1" parent="1">
          <mxGeometry x="320" y="730" width="100" height="30" as="geometry" />
        </mxCell>
        <mxCell id="ojFUXAwLOPV4ucomHzMM-34" style="edgeStyle=orthogonalEdgeStyle;rounded=0;orthogonalLoop=1;jettySize=auto;html=1;entryX=1;entryY=0.5;entryDx=0;entryDy=0;" edge="1" parent="1" source="ojFUXAwLOPV4ucomHzMM-26" target="ojFUXAwLOPV4ucomHzMM-22">
          <mxGeometry relative="1" as="geometry" />
        </mxCell>
        <mxCell id="ojFUXAwLOPV4ucomHzMM-26" value="mstates[2] = 1" style="rounded=1;whiteSpace=wrap;html=1;" vertex="1" parent="1">
          <mxGeometry x="320" y="675" width="100" height="30" as="geometry" />
        </mxCell>
        <mxCell id="ojFUXAwLOPV4ucomHzMM-32" style="edgeStyle=orthogonalEdgeStyle;rounded=0;orthogonalLoop=1;jettySize=auto;html=1;entryX=1;entryY=0.5;entryDx=0;entryDy=0;" edge="1" parent="1" source="ojFUXAwLOPV4ucomHzMM-27" target="ojFUXAwLOPV4ucomHzMM-25">
          <mxGeometry relative="1" as="geometry" />
        </mxCell>
        <mxCell id="ojFUXAwLOPV4ucomHzMM-27" value="mstates[3] = 2" style="rounded=1;whiteSpace=wrap;html=1;" vertex="1" parent="1">
          <mxGeometry x="474" y="675" width="100" height="30" as="geometry" />
        </mxCell>
        <mxCell id="ojFUXAwLOPV4ucomHzMM-31" style="edgeStyle=orthogonalEdgeStyle;rounded=0;orthogonalLoop=1;jettySize=auto;html=1;entryX=0.5;entryY=1;entryDx=0;entryDy=0;" edge="1" parent="1" source="ojFUXAwLOPV4ucomHzMM-28" target="ojFUXAwLOPV4ucomHzMM-27">
          <mxGeometry relative="1" as="geometry" />
        </mxCell>
        <mxCell id="ojFUXAwLOPV4ucomHzMM-28" value="ntstates[a] = 3" style="rounded=1;whiteSpace=wrap;html=1;" vertex="1" parent="1">
          <mxGeometry x="474" y="730" width="100" height="30" as="geometry" />
        </mxCell>
        <mxCell id="ojFUXAwLOPV4ucomHzMM-38" style="edgeStyle=orthogonalEdgeStyle;rounded=0;orthogonalLoop=1;jettySize=auto;html=1;entryX=1;entryY=0.5;entryDx=0;entryDy=0;" edge="1" parent="1" source="ojFUXAwLOPV4ucomHzMM-29" target="ojFUXAwLOPV4ucomHzMM-28">
          <mxGeometry relative="1" as="geometry" />
        </mxCell>
        <mxCell id="ojFUXAwLOPV4ucomHzMM-29" value="mstates[4] = 3" style="rounded=1;whiteSpace=wrap;html=1;" vertex="1" parent="1">
          <mxGeometry x="630" y="675" width="100" height="30" as="geometry" />
        </mxCell>
        <mxCell id="ojFUXAwLOPV4ucomHzMM-37" style="edgeStyle=orthogonalEdgeStyle;rounded=0;orthogonalLoop=1;jettySize=auto;html=1;entryX=0.5;entryY=1;entryDx=0;entryDy=0;" edge="1" parent="1" source="ojFUXAwLOPV4ucomHzMM-30" target="ojFUXAwLOPV4ucomHzMM-29">
          <mxGeometry relative="1" as="geometry" />
        </mxCell>
        <mxCell id="ojFUXAwLOPV4ucomHzMM-30" value="ntstates[a] = 4" style="rounded=1;whiteSpace=wrap;html=1;" vertex="1" parent="1">
          <mxGeometry x="630" y="730" width="100" height="30" as="geometry" />
        </mxCell>
        <mxCell id="ojFUXAwLOPV4ucomHzMM-39" value="state 1 items" style="rounded=1;whiteSpace=wrap;html=1;" vertex="1" parent="1">
          <mxGeometry x="170" y="790" width="110" height="30" as="geometry" />
        </mxCell>
        <mxCell id="ojFUXAwLOPV4ucomHzMM-40" value="state 0 items" style="rounded=1;whiteSpace=wrap;html=1;" vertex="1" parent="1">
          <mxGeometry x="30" y="790" width="110" height="32.5" as="geometry" />
        </mxCell>
        <mxCell id="ojFUXAwLOPV4ucomHzMM-41" value="state 2 items" style="rounded=1;whiteSpace=wrap;html=1;" vertex="1" parent="1">
          <mxGeometry x="320" y="790" width="110" height="30" as="geometry" />
        </mxCell>
        <mxCell id="ojFUXAwLOPV4ucomHzMM-42" value="state 3 items" style="rounded=1;whiteSpace=wrap;html=1;" vertex="1" parent="1">
          <mxGeometry x="480" y="790" width="110" height="30" as="geometry" />
        </mxCell>
        <mxCell id="ojFUXAwLOPV4ucomHzMM-43" value="state 4 items" style="rounded=1;whiteSpace=wrap;html=1;" vertex="1" parent="1">
          <mxGeometry x="630" y="790" width="110" height="30" as="geometry" />
        </mxCell>
        <mxCell id="ojFUXAwLOPV4ucomHzMM-44" value="given a state number, we can access all items in that state" style="rounded=1;whiteSpace=wrap;html=1;" vertex="1" parent="1">
          <mxGeometry x="251.5" y="990" width="320" height="30" as="geometry" />
        </mxCell>
        <mxCell id="ojFUXAwLOPV4ucomHzMM-45" value="before advancing state number, we insert items for it in kernel. but it is not officially created yet. it can be removed to merge with previous state that:&lt;br&gt;&lt;blockquote data-darkreader-inline-border-left=&quot;&quot; data-darkreader-inline-border-bottom=&quot;&quot; data-darkreader-inline-border-right=&quot;&quot; data-darkreader-inline-border-top=&quot;&quot; style=&quot;margin: 0px 0px 0px 40px; border: none; padding: 0px; --darkreader-inline-border-top: initial; --darkreader-inline-border-right: initial; --darkreader-inline-border-bottom: initial; --darkreader-inline-border-left: initial;&quot;&gt;- transitions on the same symbol&lt;div&gt;- has identical items (not consider lookahead set)&lt;/div&gt;&lt;/blockquote&gt;" style="rounded=1;whiteSpace=wrap;html=1;align=left;" vertex="1" parent="1">
          <mxGeometry x="236.5" y="880" width="350" height="80" as="geometry" />
        </mxCell>
        <mxCell id="ojFUXAwLOPV4ucomHzMM-46" value="given the current transition symbol, we can access the most recent state number of it&lt;div&gt;by ntstates[c-NTBASE] or tstates[c]&lt;/div&gt;" style="rounded=1;whiteSpace=wrap;html=1;" vertex="1" parent="1">
          <mxGeometry x="200" y="1050" width="470" height="40" as="geometry" />
        </mxCell>
        <mxCell id="ojFUXAwLOPV4ucomHzMM-47" value="give that state number, we can get its previous state number (associated to the same symbol) by mstates[num]" style="rounded=1;whiteSpace=wrap;html=1;" vertex="1" parent="1">
          <mxGeometry x="130" y="1110" width="610" height="31" as="geometry" />
        </mxCell>
        <mxCell id="ojFUXAwLOPV4ucomHzMM-48" value="by following mstates until we reach state 0, we found all the states associated to a transition symbol" style="rounded=1;whiteSpace=wrap;html=1;" vertex="1" parent="1">
          <mxGeometry x="150" y="1190" width="550" height="40" as="geometry" />
        </mxCell>
        <mxCell id="ojFUXAwLOPV4ucomHzMM-49" value="PLEASE CALL mstates stateChain FOR GOD&#39;S SAKE!" style="rounded=1;whiteSpace=wrap;html=1;" vertex="1" parent="1">
          <mxGeometry x="260" y="1290" width="350" height="30" as="geometry" />
        </mxCell>
        <mxCell id="ojFUXAwLOPV4ucomHzMM-50" value="the idx of stateChain indicates current state, the value indicates previous state" style="rounded=1;whiteSpace=wrap;html=1;" vertex="1" parent="1">
          <mxGeometry x="251" y="1380" width="325" height="60" as="geometry" />
        </mxCell>
      </root>
    </mxGraphModel>
  </diagram>
</mxfile>
